<svg width="17.855469" height="17.855225" viewBox="0 0 17.8555 17.8552" fill="none" xmlns="http://www.w3.org/2000/svg" xmlns:xlink="http://www.w3.org/1999/xlink">
	<defs/>
	<path id="Vector" d="M13.02 0L4.83 0C2.16 0 0 2.16 0 4.83L0 13.02C0 15.68 2.16 17.85 4.83 17.85L13.02 17.85C15.68 17.85 17.85 15.68 17.85 13.02L17.85 4.83C17.85 2.16 15.68 0 13.02 0ZM8.92 13.8C6.23 13.8 4.04 11.61 4.04 8.92C4.04 6.23 6.23 4.04 8.92 4.04C11.61 4.04 13.81 6.23 13.81 8.92C13.81 11.61 11.61 13.8 8.92 13.8ZM13.92 5.19C13.13 5.19 12.48 4.54 12.48 3.75C12.48 2.95 13.13 2.31 13.92 2.31C14.72 2.31 15.36 2.95 15.36 3.75C15.36 4.54 14.72 5.19 13.92 5.19Z" fill="#FFFFFF" fill-opacity="1.000000" fill-rule="nonzero"/>
</svg>
