<svg width="18.658203" height="10.616455" viewBox="0 0 18.6582 10.6165" fill="none" xmlns="http://www.w3.org/2000/svg" xmlns:xlink="http://www.w3.org/1999/xlink">
	<defs/>
	<path id="Vector" d="M9.12 10.57L10.24 10.57C10.24 10.57 10.58 10.53 10.75 10.35C10.91 10.18 10.9 9.86 10.9 9.86C10.9 9.86 10.88 8.36 11.58 8.14C12.26 7.93 13.14 9.59 14.07 10.22C14.78 10.71 15.31 10.6 15.31 10.6L17.8 10.57C17.8 10.57 19.11 10.49 18.49 9.46C18.44 9.38 18.13 8.71 16.64 7.33C15.07 5.88 15.28 6.11 17.16 3.61C18.31 2.09 18.77 1.16 18.63 0.76C18.49 0.38 17.65 0.48 17.65 0.48L14.84 0.5C14.84 0.5 14.63 0.47 14.48 0.56C14.33 0.65 14.23 0.86 14.23 0.86C14.23 0.86 13.79 2.04 13.19 3.04C11.94 5.16 11.45 5.27 11.24 5.14C10.77 4.83 10.89 3.91 10.89 3.25C10.89 1.2 11.2 0.35 10.28 0.13C9.97 0.05 9.75 0.01 8.97 0C7.97 -0.01 7.12 0 6.64 0.23C6.32 0.39 6.08 0.74 6.22 0.76C6.41 0.78 6.83 0.87 7.05 1.17C7.34 1.56 7.33 2.44 7.33 2.44C7.33 2.44 7.5 4.85 6.94 5.15C6.57 5.36 6.05 4.94 4.93 3.02C4.36 2.04 3.93 0.95 3.93 0.95C3.93 0.95 3.85 0.75 3.7 0.64C3.52 0.51 3.27 0.46 3.27 0.46L0.6 0.48C0.6 0.48 0.2 0.49 0.06 0.67C-0.08 0.82 0.05 1.14 0.05 1.14C0.05 1.14 2.13 6.01 4.5 8.46C6.66 10.72 9.12 10.57 9.12 10.57Z" fill="#FFFFFF" fill-opacity="1.000000" fill-rule="evenodd"/>
</svg>
