<svg width="19.654297" height="13.831787" viewBox="0 0 19.6543 13.8318" fill="none" xmlns="http://www.w3.org/2000/svg" xmlns:xlink="http://www.w3.org/1999/xlink">
	<path id="Vector" d="M18.88 1.18C18.17 0.34 16.86 0 14.36 0L5.28 0C2.72 0 1.39 0.36 0.68 1.26C0 2.13 0 3.42 0 5.21L0 8.61C0 12.07 0.81 13.83 5.28 13.83L14.36 13.83C16.53 13.83 17.73 13.52 18.51 12.78C19.31 12.02 19.65 10.77 19.65 8.61L19.65 5.21C19.65 3.33 19.6 2.03 18.88 1.18ZM12.61 7.38L8.49 9.54C8.4 9.58 8.3 9.61 8.2 9.61C8.08 9.61 7.97 9.58 7.87 9.52C7.68 9.4 7.56 9.2 7.56 8.97L7.56 4.68C7.56 4.46 7.68 4.25 7.87 4.14C8.06 4.02 8.29 4.01 8.49 4.11L12.61 6.26C12.82 6.37 12.95 6.58 12.95 6.82C12.95 7.05 12.82 7.27 12.61 7.38Z" fill="#FFFFFF" fill-opacity="1.000000" fill-rule="nonzero"/>
</svg>
