<svg width="61.669922" height="17.424011" viewBox="0 0 61.6699 17.424" fill="none" xmlns="http://www.w3.org/2000/svg" xmlns:xlink="http://www.w3.org/1999/xlink">
	<desc>
			Created with Pixso.
	</desc>
	<defs/>
	<path id="CoDe" d="M26.62 16.91Q27.67 16.45 28.54 15.6C29.77 14.38 30.39 12.88 30.39 11.11Q30.39 9.66 29.84 8.46Q29.38 7.45 28.54 6.62C27.31 5.4 25.81 4.8 24.05 4.8Q22.65 4.8 21.48 5.3Q20.43 5.76 19.56 6.62Q18.75 7.43 18.3 8.41Q17.74 9.63 17.74 11.11Q17.74 12.59 18.3 13.81Q18.75 14.78 19.56 15.6Q20.43 16.45 21.48 16.91Q22.65 17.42 24.05 17.42Q25.45 17.42 26.62 16.91ZM53 14.56C52.23 13.97 51.75 13.14 51.54 12.07L61.59 12.07C61.64 11.75 61.67 11.44 61.67 11.13C61.67 9.39 61.11 7.9 59.99 6.67C58.88 5.42 57.45 4.8 55.69 4.8Q53.83 4.8 52.43 5.6Q51.74 6 51.15 6.6C49.99 7.8 49.4 9.3 49.4 11.11C49.4 12.93 49.99 14.44 51.18 15.64C52.38 16.83 53.93 17.42 55.83 17.42C58.19 17.42 59.95 16.52 61.11 14.71L59.34 13.7C58.62 14.87 57.47 15.45 55.88 15.45C54.75 15.45 53.79 15.16 53 14.56ZM52.91 7.72C53.64 7.08 54.57 6.76 55.69 6.76Q56.5 6.76 57.2 7.05Q57.74 7.26 58.21 7.65C58.93 8.24 59.38 9.11 59.55 10.24L51.54 10.24C51.71 9.19 52.17 8.35 52.91 7.72ZM25.9 14.99Q25.07 15.38 24.05 15.38Q23.08 15.38 22.28 15.02Q21.61 14.71 21.05 14.16Q20.55 13.65 20.25 13.05Q19.83 12.18 19.83 11.11Q19.83 10.03 20.25 9.17Q20.55 8.56 21.05 8.06Q21.61 7.5 22.28 7.2Q23.08 6.84 24.05 6.84Q25.07 6.84 25.9 7.23Q26.54 7.53 27.07 8.06Q27.58 8.56 27.87 9.17Q28.3 10.03 28.3 11.11Q28.3 12.18 27.87 13.05Q27.58 13.65 27.07 14.16Q26.54 14.69 25.9 14.99Z" fill="#000000" fill-opacity="1.000000" fill-rule="evenodd"/>
	<path id="CoDe" d="M4.54 16.44Q6.4 17.42 8.78 17.42Q10.2 17.42 11.48 17Q12.28 16.74 13.03 16.32Q14.31 15.57 15.21 14.5Q15.67 13.95 16.03 13.32L14.08 12.21C13.6 13.12 12.88 13.86 11.92 14.42C10.98 14.96 9.93 15.24 8.78 15.24Q6.85 15.24 5.39 14.41Q4.65 13.99 4.03 13.36Q3.32 12.63 2.88 11.77Q2.2 10.41 2.2 8.71Q2.2 6.95 2.92 5.56Q3.34 4.73 4.03 4.03Q4.65 3.4 5.39 2.98Q6.85 2.16 8.78 2.16Q9.94 2.16 10.96 2.53Q11.46 2.72 11.92 3C12.88 3.54 13.6 4.28 14.08 5.2L16.03 4.08Q15.62 3.37 15.09 2.77Q14.21 1.79 13 1.1Q12.33 0.71 11.6 0.46Q10.27 1.9e-6 8.78 1.9e-6Q6.4 1.9e-6 4.54 0.97Q3.41 1.56 2.47 2.52Q1.4 3.6 0.79 4.9Q-0.01 6.62 -0.01 8.71Q-0.01 10.8 0.79 12.51Q1.4 13.81 2.47 14.9Q3.41 15.85 4.54 16.44Z" fill="#38BFF2" fill-opacity="1.000000" fill-rule="evenodd"/>
	<path id="CoDe" d="M45.3 2.76C43.8 1.12 41.9 0.31 39.61 0.31L33.06 0.31L33.06 17.11L39.61 17.11C41.9 17.11 43.8 16.3 45.3 14.68Q46.22 13.7 46.77 12.54Q47.58 10.82 47.58 8.71C47.58 6.36 46.82 4.37 45.3 2.76ZM43.81 13.2C42.73 14.4 41.33 15 39.61 15L35.29 15L35.29 2.42L39.61 2.42C41.33 2.42 42.73 3.02 43.81 4.22Q44.32 4.77 44.67 5.41Q45.45 6.85 45.45 8.71Q45.45 10.57 44.67 12Q44.32 12.64 43.81 13.2Z" fill="#F15525" fill-opacity="1.000000" fill-rule="evenodd"/>
</svg>
